{"title":"Nacho Libre-720p MP4 AAC x264 BRRip 2006-CC","uid":7461180,"size":2158911612,"categoryP":"video","categoryS":"hd___movies","magnet":"?xt=urn:btih:cd5dc4e805c7350fceca91e14f675a913a69607c&amp;dn=Nacho+Libre-720p+MP4+AAC+x264+BRRip+2006-CC&amp;tr=udp%3A%2F%2Ftracker.openbittorrent.com%3A80&amp;tr=udp%3A%2F%2Fopen.demonii.com%3A1337&amp;tr=udp%3A%2F%2Ftracker.coppersurfer.tk%3A6969&amp;tr=udp%3A%2F%2Fexodus.desync.com%3A6969","seeders":1,"leechers":0,"uploader":"Caveman44","files":-1,"time":1342820930,"description":" &lt;a href=&quot;http://www.imdb.com/title/tt0457510/&quot; rel=&quot;nofollow&quot; target=&quot;_NEW&quot;&gt;http://www.imdb.com/title/tt0457510/&lt;/a&gt;\n\nSource: Nacho Libre (2006) BDRip 720p multi HighCode-BTNET ( Thanks! ).\n\nSubs: Arabian, Bulgarian, Croatian, Czech, Danish, Dutch, English, Finnish, Greek, Hebrew, Hungarian, Indonesian, Italian, Persian, Polish, Portuguese, Romanian, Slovenian, Spanish, Swedish, Turkish and Vietnamese. (Extracted from source).\n\nSample and Screens included.\n\nGeneral\nComplete name                    : Nacho Libre-720p MP4 AAC x264 BRRip 2006-CC.mp4\nFormat                           : MPEG-4\nFormat profile                   : Base Media\nCodec ID                         : isom\nFile size                        : 1.98 GiB\nDuration                         : 1h 32mn\nOverall bit rate                 : 3 078 Kbps\nEncoded date                     : UTC 2012-07-18 13:24:26\n\nVideo\nID                               : 1\nFormat                           : AVC\nFormat/Info                      : Advanced Video Codec\nFormat profile                   : &lt;a class=&quot;__cf_email__&quot; href=&quot;/cdn-cgi/l/email-protection&quot; data-cfemail=&quot;3a72535d527a7609140b&quot;&gt;[email&amp;#160;protected]&lt;/a&gt;&lt;script cf-hash='f9e31' type=&quot;text/javascript&quot;&gt;\n/* &lt;![CDATA[ */!function(){try{var t=&quot;currentScript&quot;in document?document.currentScript:function(){for(var t=document.getElementsByTagName(&quot;script&quot;),e=t.length;e--;)if(t[e].getAttribute(&quot;cf-hash&quot;))return t[e]}();if(t&amp;&amp;t.previousSibling){var e,r,n,i,c=t.previousSibling,a=c.getAttribute(&quot;data-cfemail&quot;);if(a){for(e=&quot;&quot;,r=parseInt(a.substr(0,2),16),n=2;a.length-n;n+=2)i=parseInt(a.substr(n,2),16)^r,e+=String.fromCharCode(i);e=document.createTextNode(e),c.parentNode.replaceChild(e,c)}}}catch(u){}}();/* ]]&gt; */&lt;/script&gt;\nFormat settings, CABAC           : Yes\nFormat settings, ReFrames        : 5 frames\nCodec ID                         : avc1\nCodec ID/Info                    : Advanced Video Coding\nDuration                         : 1h 32mn\nBit rate mode                    : Variable\nBit rate                         : 2 690 Kbps\nNominal bit rate                 : 2 752 Kbps\nMaximum bit rate                 : 9 396 Kbps\nWidth                            : 1 280 pixels\nHeight                           : 720 pixels\nDisplay aspect ratio             : 16:9\nFrame rate mode                  : Variable\nFrame rate                       : 23.976 fps\nMinimum frame rate               : 12.048 fps\nMaximum frame rate               : 24.390 fps\nResolution                       : 24 bits\nColorimetry                      : 4:2:0\nScan type                        : Progressive\nBits/(Pixel*Frame)               : 0.122\nStream size                      : 1.73 GiB (87%)\nWriting library                  : x264 core 112\n\nAudio\nID                               : 2\nFormat                           : AAC\nFormat/Info                      : Advanced Audio Codec\nFormat version                   : Version 4\nFormat profile                   : LC\nFormat settings, SBR             : No\nCodec ID                         : 40\nDuration                         : 1h 32mn\nBit rate mode                    : Variable\nBit rate                         : 384 Kbps\nMaximum bit rate                 : 639 Kbps\nChannel(s)                       : 6 channels\nChannel positions                : Front: L C R, Rear: L R, LFE\nSampling rate                    : 48.0 KHz\nResolution                       : 16 bits\nStream size                      : 253 MiB (12%)\nLanguage                         : English\n\nEnjoy...\n\nRequested by Alorati.","torrent":{"xt":"urn:btih:cd5dc4e805c7350fceca91e14f675a913a69607c","amp;dn":"Nacho+Libre-720p+MP4+AAC+x264+BRRip+2006-CC","amp;tr":["udp%3A%2F%2Ftracker.openbittorrent.com%3A80","udp%3A%2F%2Fopen.demonii.com%3A1337","udp%3A%2F%2Ftracker.coppersurfer.tk%3A6969","udp%3A%2F%2Fexodus.desync.com%3A6969"],"infoHash":"cd5dc4e805c7350fceca91e14f675a913a69607c","infoHashBuffer":{"type":"Buffer","data":[205,93,196,232,5,199,53,15,206,202,145,225,79,103,90,145,58,105,96,124]},"announce":[],"urlList":[]}}